<?xml version="1.0" encoding="UTF-8"?>
<svg xmlns="http://www.w3.org/2000/svg" xmlns:xlink="http://www.w3.org/1999/xlink" width="48px" height="48px" viewBox="0 0 48 48" version="1.1">
<g id="surface1">
<path style=" stroke:none;fill-rule:nonzero;fill:rgb(0%,0%,0%);fill-opacity:1;" d="M 24.1875 1.3125 C 16.003906 1.3125 9.375 7.941406 9.375 16.117188 C 9.375 22.660156 13.617188 28.207031 19.503906 30.160156 C 20.242188 30.300781 20.515625 29.84375 20.515625 29.449219 C 20.515625 29.097656 20.503906 28.167969 20.496094 26.933594 C 16.375 27.828125 15.507812 24.945312 15.507812 24.945312 C 14.832031 23.238281 13.859375 22.78125 13.859375 22.78125 C 12.519531 21.863281 13.964844 21.882812 13.964844 21.882812 C 15.449219 21.988281 16.230469 23.40625 16.230469 23.40625 C 17.550781 25.671875 19.699219 25.015625 20.546875 24.640625 C 20.679688 23.679688 21.0625 23.027344 21.484375 22.660156 C 18.195312 22.289062 14.738281 21.015625 14.738281 15.34375 C 14.738281 13.726562 15.3125 12.40625 16.261719 11.371094 C 16.09375 10.996094 15.59375 9.492188 16.390625 7.453125 C 16.390625 7.453125 17.632812 7.054688 20.464844 8.96875 C 21.648438 8.640625 22.910156 8.476562 24.167969 8.46875 C 25.425781 8.476562 26.6875 8.640625 27.871094 8.96875 C 30.683594 7.054688 31.925781 7.453125 31.925781 7.453125 C 32.722656 9.492188 32.222656 10.996094 32.074219 11.371094 C 33.019531 12.40625 33.59375 13.726562 33.59375 15.34375 C 33.59375 21.03125 30.128906 22.28125 26.835938 22.644531 C 27.351562 23.089844 27.832031 24 27.832031 25.386719 C 27.832031 27.367188 27.816406 28.957031 27.816406 29.4375 C 27.816406 29.828125 28.074219 30.289062 28.832031 30.140625 C 34.761719 28.199219 39 22.648438 39 16.117188 C 39 7.941406 32.367188 1.3125 24.1875 1.3125 "/>
<path style=" stroke:none;fill-rule:nonzero;fill:rgb(41.568628%,45.09804%,49.019608%);fill-opacity:1;" d="M 3.707031 45.75 L 4.265625 43.746094 L 6.972656 43.746094 L 7.542969 45.75 L 8.625 45.75 L 6.257812 38.0625 L 4.992188 38.0625 L 2.625 45.75 Z M 6.5625 42.9375 L 4.3125 42.9375 L 5.4375 39 Z M 12.503906 45.9375 C 12.777344 45.9375 13.042969 45.898438 13.304688 45.824219 C 13.5625 45.75 13.816406 45.636719 14.0625 45.484375 L 14.0625 44.480469 C 13.847656 44.699219 13.613281 44.859375 13.359375 44.960938 C 13.109375 45.066406 12.824219 45.117188 12.503906 45.117188 C 11.933594 45.117188 11.492188 44.917969 11.183594 44.523438 C 10.871094 44.128906 10.714844 43.570312 10.714844 42.84375 C 10.714844 42.113281 10.871094 41.554688 11.179688 41.160156 C 11.488281 40.765625 11.929688 40.570312 12.503906 40.570312 C 12.8125 40.570312 13.089844 40.621094 13.332031 40.722656 C 13.578125 40.824219 13.820312 40.988281 14.0625 41.21875 L 14.0625 40.203125 C 13.804688 40.046875 13.546875 39.933594 13.289062 39.859375 C 13.035156 39.785156 12.773438 39.75 12.503906 39.75 C 11.640625 39.75 10.964844 40.023438 10.480469 40.570312 C 9.992188 41.117188 9.75 41.875 9.75 42.84375 C 9.75 43.8125 9.992188 44.570312 10.480469 45.117188 C 10.964844 45.664062 11.640625 45.9375 12.503906 45.9375 Z M 20.0625 45.75 L 20.0625 45.003906 L 19.027344 45.003906 C 18.640625 45.003906 18.367188 44.917969 18.210938 44.753906 C 18.054688 44.585938 17.976562 44.292969 17.976562 43.875 L 17.976562 40.78125 L 20.0625 40.78125 L 20.0625 40.054688 L 17.976562 40.054688 L 17.976562 38.4375 L 17.054688 38.4375 L 17.054688 40.054688 L 15.5625 40.054688 L 15.5625 40.78125 L 17.054688 40.78125 L 17.054688 43.875 C 17.054688 44.5625 17.199219 45.046875 17.480469 45.328125 C 17.761719 45.609375 18.25 45.75 18.9375 45.75 Z M 25.3125 39 L 25.3125 37.875 L 24.375 37.875 L 24.375 39 Z M 27.1875 45.75 L 27.1875 45.027344 L 25.316406 45.027344 L 25.316406 40.125 L 22.898438 40.125 L 22.898438 40.847656 L 24.371094 40.847656 L 24.371094 45.027344 L 22.5 45.027344 L 22.5 45.75 Z M 30.746094 45.9375 C 31.539062 45.9375 32.144531 45.671875 32.5625 45.144531 C 32.980469 44.617188 33.1875 43.851562 33.1875 42.84375 C 33.1875 41.839844 32.976562 41.074219 32.558594 40.542969 C 32.140625 40.015625 31.535156 39.75 30.746094 39.75 C 29.957031 39.75 29.355469 40.015625 28.9375 40.542969 C 28.519531 41.074219 28.3125 41.839844 28.3125 42.84375 C 28.3125 43.851562 28.519531 44.617188 28.9375 45.144531 C 29.355469 45.671875 29.957031 45.9375 30.746094 45.9375 Z M 30.746094 45 C 30.253906 45 29.882812 44.816406 29.628906 44.453125 C 29.375 44.089844 29.25 43.550781 29.25 42.84375 C 29.25 42.132812 29.375 41.59375 29.628906 41.230469 C 29.882812 40.867188 30.253906 40.6875 30.746094 40.6875 C 31.242188 40.6875 31.617188 40.867188 31.871094 41.230469 C 32.125 41.59375 32.25 42.132812 32.25 42.84375 C 32.25 43.550781 32.125 44.089844 31.871094 44.453125 C 31.617188 44.816406 31.242188 45 30.746094 45 Z M 35.800781 45.75 L 35.800781 42.542969 C 35.800781 41.964844 35.917969 41.519531 36.152344 41.210938 C 36.386719 40.902344 36.71875 40.75 37.152344 40.75 C 37.53125 40.75 37.808594 40.867188 37.988281 41.109375 C 38.167969 41.347656 38.253906 41.722656 38.253906 42.234375 L 38.253906 45.75 L 39.1875 45.75 L 39.1875 42.234375 C 39.1875 41.460938 39.046875 40.886719 38.761719 40.507812 C 38.476562 40.128906 38.050781 39.9375 37.472656 39.9375 C 37.089844 39.9375 36.753906 40.019531 36.472656 40.1875 C 36.191406 40.355469 35.964844 40.601562 35.800781 40.925781 L 35.800781 40.074219 L 34.875 40.074219 L 34.875 45.75 Z M 43.3125 45.9375 C 44.015625 45.9375 44.570312 45.773438 44.964844 45.445312 C 45.363281 45.117188 45.5625 44.664062 45.5625 44.082031 C 45.5625 43.640625 45.445312 43.285156 45.207031 43.011719 C 44.96875 42.738281 44.621094 42.554688 44.160156 42.464844 L 43.785156 42.390625 C 43.167969 42.269531 42.785156 42.140625 42.628906 42.011719 C 42.472656 41.882812 42.398438 41.6875 42.398438 41.421875 C 42.398438 41.132812 42.5 40.914062 42.707031 40.773438 C 42.914062 40.632812 43.226562 40.558594 43.648438 40.558594 C 43.929688 40.558594 44.203125 40.601562 44.472656 40.679688 C 44.742188 40.761719 45.007812 40.882812 45.273438 41.042969 L 45.273438 40.097656 C 45.003906 39.980469 44.730469 39.894531 44.453125 39.835938 C 44.171875 39.777344 43.882812 39.75 43.578125 39.75 C 42.898438 39.75 42.375 39.902344 42.007812 40.210938 C 41.640625 40.515625 41.457031 40.953125 41.457031 41.519531 C 41.457031 41.964844 41.582031 42.316406 41.828125 42.574219 C 42.070312 42.832031 42.460938 43.015625 42.996094 43.121094 L 43.347656 43.195312 L 43.386719 43.207031 C 44.210938 43.378906 44.625 43.6875 44.625 44.136719 C 44.625 44.449219 44.511719 44.691406 44.285156 44.867188 C 44.058594 45.039062 43.742188 45.128906 43.332031 45.128906 C 43.046875 45.128906 42.75 45.082031 42.433594 44.988281 C 42.117188 44.894531 41.785156 44.753906 41.4375 44.570312 L 41.4375 45.570312 C 41.792969 45.691406 42.125 45.785156 42.433594 45.84375 C 42.738281 45.90625 43.03125 45.9375 43.3125 45.9375 Z M 43.3125 45.9375 "/>
</g>
</svg>
